<svg xmlns="http://www.w3.org/2000/svg" xmlns:xlink="http://www.w3.org/1999/xlink" xml:space="preserve" version="1.1" style="shape-rendering:geometricPrecision;text-rendering:geometricPrecision;image-rendering:optimizeQuality;" viewBox="0 0 847 1058.75" x="0px" y="0px" fill-rule="evenodd" clip-rule="evenodd"><defs><style type="text/css">
   
    .fil0 {fill:black;fill-rule:nonzero}
   
  </style></defs><g><path class="fil0" d="M373 264l100 0c10,0 17,7 17,17l0 100c0,9 -7,17 -17,17l-100 0c-9,0 -17,-8 -17,-17l0 -100c0,-10 8,-17 17,-17zm84 34l-67 0 0 66 67 0 0 -66zm-118 381l0 -190c0,-20 11,-47 36,-47l97 0c24,0 36,27 36,47l0 190 48 0 85 -314 -25 -22c-4,-3 -6,-7 -6,-13l0 -97 -32 0 0 39c0,4 -1,8 -4,12 -6,7 -17,7 -24,1l-127 -111 -217 191 84 314 49 0zm34 -190l0 190 101 0 0 -190c0,-5 -1,-9 -3,-12 -3,-4 -94,-3 -95,-1 -2,3 -3,8 -3,13zm118 224l-214 0c-8,0 -15,-6 -16,-14l-83 -309 -16 13 -22 -25 272 -240c7,-5 16,-5 23,0l109 97 0 -18c0,-10 8,-17 17,-17l66 0c9,0 17,7 17,17l0 106 63 55 -23 25 -15 -13 -83 310c-2,7 -9,12 -17,12l-78 1z"/></g><text x="0" y="862" fill="#000000" font-size="5px" font-weight="bold" font-family="'Helvetica Neue', Helvetica, Arial-Unicode, Arial, Sans-serif">Created by alex setyawan</text><text x="0" y="867" fill="#000000" font-size="5px" font-weight="bold" font-family="'Helvetica Neue', Helvetica, Arial-Unicode, Arial, Sans-serif">from the Noun Project</text></svg>